<?xml version="1.0" standalone="no"?>
<!DOCTYPE svg PUBLIC "-//W3C//DTD SVG 20010904//EN"
 "http://www.w3.org/TR/2001/REC-SVG-20010904/DTD/svg10.dtd">
<svg version="1.0" xmlns="http://www.w3.org/2000/svg"
 width="512.000000pt" height="512.000000pt" viewBox="0 0 512.000000 512.000000"
 preserveAspectRatio="xMidYMid meet">
<metadata>
Created by potrace 1.14, written by Peter Selinger 2001-2017
</metadata>
<g transform="translate(0.000000,512.000000) scale(0.100000,-0.100000)"
fill="#000000" stroke="none">
<path d="M1043 4849 c-12 -4 -29 -21 -37 -37 -15 -29 -478 -1083 -563 -1282
-25 -58 -58 -133 -74 -168 -40 -87 -42 -107 -16 -137 12 -13 135 -105 272
-205 138 -99 292 -210 343 -248 52 -37 124 -89 160 -115 37 -26 146 -105 242
-175 96 -70 197 -143 224 -162 93 -66 134 -96 380 -274 218 -157 253 -187 301
-251 169 -224 431 -373 709 -403 145 -15 326 -6 486 24 388 74 648 -51 804
-388 45 -97 71 -187 92 -319 3 -14 6 -70 7 -124 3 -88 5 -99 26 -116 32 -26
68 -24 95 6 21 22 23 33 21 117 -2 92 -13 206 -20 218 -2 4 -7 21 -10 39 -14
80 -84 256 -142 356 -60 103 -190 231 -293 287 -156 86 -358 109 -585 67 -257
-47 -469 -43 -640 13 -172 56 -327 164 -429 300 -28 37 -29 47 -11 148 2 14 7
45 10 70 8 56 8 59 45 320 17 118 33 233 36 255 2 22 7 51 10 65 2 14 6 45 9
70 3 25 7 56 10 70 3 14 7 43 10 65 2 22 11 85 19 140 8 55 17 120 21 145 3
25 8 56 10 70 2 14 7 45 10 70 4 25 8 56 10 70 2 14 9 63 15 110 6 47 13 96
15 110 4 32 17 111 20 130 1 8 6 42 10 75 4 32 9 68 11 80 2 11 7 40 10 65 3
25 7 56 10 70 8 54 17 136 16 155 -2 32 -30 48 -198 109 -88 31 -168 61 -179
66 -11 5 -83 32 -160 60 -77 29 -180 67 -230 85 -413 153 -833 307 -845 310
-8 1 -25 -1 -37 -6z"/>
</g>
</svg>
